<?xml version="1.0" encoding="UTF-8" standalone="no"?>
<!-- Created with Inkscape (http://www.inkscape.org/) -->

<svg
   xmlns:dc="http://purl.org/dc/elements/1.1/"
   xmlns:cc="http://creativecommons.org/ns#"
   xmlns:rdf="http://www.w3.org/1999/02/22-rdf-syntax-ns#"
   xmlns:svg="http://www.w3.org/2000/svg"
   xmlns="http://www.w3.org/2000/svg"
   xmlns:sodipodi="http://sodipodi.sourceforge.net/DTD/sodipodi-0.dtd"
   xmlns:inkscape="http://www.inkscape.org/namespaces/inkscape"
   version="1.1"
   width="156.11427"
   height="96.953751"
   id="svg2"
   xml:space="preserve"
   inkscape:version="0.48.5 r10040"
   sodipodi:docname="Grooveshark.svg"><sodipodi:namedview
     pagecolor="#ffffff"
     bordercolor="#666666"
     borderopacity="1"
     objecttolerance="10"
     gridtolerance="10"
     guidetolerance="10"
     inkscape:pageopacity="0"
     inkscape:pageshadow="2"
     inkscape:window-width="1907"
     inkscape:window-height="1027"
     id="namedview12"
     showgrid="false"
     fit-margin-top="0"
     fit-margin-left="0"
     fit-margin-right="0"
     fit-margin-bottom="0"
     inkscape:zoom="2"
     inkscape:cx="-9.0528278"
     inkscape:cy="-12.401537"
     inkscape:window-x="10"
     inkscape:window-y="24"
     inkscape:window-maximized="0"
     inkscape:current-layer="g10" /><metadata
     id="metadata8"><rdf:RDF><cc:Work
         rdf:about=""><dc:format>image/svg+xml</dc:format><dc:type
           rdf:resource="http://purl.org/dc/dcmitype/StillImage" /><dc:title></dc:title></cc:Work></rdf:RDF></metadata><defs
     id="defs6"><clipPath
       id="clipPath18"><path
         d="M 0,2000.8 0,0 l 13183.7,0 0,2000.8 -13183.7,0 z"
         inkscape:connector-curvature="0"
         id="path20" /></clipPath></defs><g
     transform="matrix(1.25,0,0,-1.25,-453.37907,198.00468)"
     id="g10"><g
       transform="scale(0.1,0.1)"
       id="g12"
       style="fill:#1058b7;fill-opacity:1"><g
         id="g14"
         style="fill:#1058b7;fill-opacity:1"><g
           clip-path="url(#clipPath18)"
           id="g16"
           style="fill:#1058b7;fill-opacity:1" /></g></g><path
       style="fill:none;stroke:#000000;stroke-width:4;stroke-linecap:round;stroke-linejoin:round;stroke-miterlimit:4;stroke-opacity:1;stroke-dasharray:none"
       d="M 195.34375,148.8125 C 186.36875,145.02775 178.89,137.32375 173.3125,129.53125 166.9125,120.585 160.36,111.8075 153.1875,103.46875 146.44375,95.6375 139.25875,88.125 131.46875,81.34375 123.69475,74.57 115.2545,68.13 105.9375,63.65625 99.690487,60.645 93.252875,58.3775 86.59375,56.46875 86.027969,56.31125 84.735742,55.753008 83.875,55.875 c -0.286914,0.04066 -0.537344,0.174375 -0.6875,0.40625 -0.369125,0.57375 -0.07712,1.645 0,2.28125 0.164125,1.38 0.3285,2.74875 0.5,4.125 1.991125,16.52125 2.75625,33.9575 -2.375,50 -2.754,8.64625 -7.775875,16.5635 -14.46875,22.6875 -5.5513,5.06988 -13.4755,10.2105 -21.34375,9.84375 -0.724375,-0.0305 -1.461422,-0.12006 -2.1875,-0.25"
       transform="matrix(0.8,0,0,-0.8,329.71773,201.49269)"
       id="path22"
       inkscape:connector-curvature="0"
       sodipodi:nodetypes="ccccccsccccccc" /></g></svg>