<?xml version="1.0" encoding="UTF-8" standalone="no"?>
<!-- Created with Inkscape (http://www.inkscape.org/) -->

<svg
   xmlns:dc="http://purl.org/dc/elements/1.1/"
   xmlns:cc="http://creativecommons.org/ns#"
   xmlns:rdf="http://www.w3.org/1999/02/22-rdf-syntax-ns#"
   xmlns:svg="http://www.w3.org/2000/svg"
   xmlns="http://www.w3.org/2000/svg"
   xmlns:sodipodi="http://sodipodi.sourceforge.net/DTD/sodipodi-0.dtd"
   xmlns:inkscape="http://www.inkscape.org/namespaces/inkscape"
   width="500.16104"
   height="500.07007"
   id="svg2"
   version="1.1"
   inkscape:version="0.48.5 r10040"
   sodipodi:docname="logo.svg">
  <defs
     id="defs4" />
  <sodipodi:namedview
     id="base"
     pagecolor="#ffffff"
     bordercolor="#666666"
     borderopacity="1.0"
     inkscape:pageopacity="0.0"
     inkscape:pageshadow="2"
     inkscape:zoom="0.7"
     inkscape:cx="-186.40214"
     inkscape:cy="393.40129"
     inkscape:document-units="px"
     inkscape:current-layer="layer1"
     showgrid="false"
     fit-margin-top="0"
     fit-margin-left="0"
     fit-margin-right="0"
     fit-margin-bottom="0"
     inkscape:window-width="1920"
     inkscape:window-height="1056"
     inkscape:window-x="1920"
     inkscape:window-y="24"
     inkscape:window-maximized="1" />
  <metadata
     id="metadata7">
    <rdf:RDF>
      <cc:Work
         rdf:about="">
        <dc:format>image/svg+xml</dc:format>
        <dc:type
           rdf:resource="http://purl.org/dc/dcmitype/StillImage" />
        <dc:title />
      </cc:Work>
    </rdf:RDF>
  </metadata>
  <g
     inkscape:label="Layer 1"
     inkscape:groupmode="layer"
     id="layer1"
     transform="translate(-121.9613,-276.15397)">
    <path
       sodipodi:type="arc"
       style="opacity:0.98999999;fill:#000000;fill-opacity:1;fill-rule:nonzero;stroke:#2f3741;stroke-width:0;stroke-linecap:square;stroke-linejoin:miter;stroke-miterlimit:4;stroke-opacity:1;stroke-dasharray:none"
       id="path2985"
       sodipodi:cx="264.65997"
       sodipodi:cy="527.08289"
       sodipodi:rx="171.72594"
       sodipodi:ry="343.45187"
       d="m 436.38591,527.08289 c 0,189.68323 -76.88432,343.45187 -171.72594,343.45187 -94.84161,0 -171.725934,-153.76864 -171.725934,-343.45187 0,-189.68324 76.884324,-343.45188 171.725934,-343.45188 94.84162,0 171.72594,153.76864 171.72594,343.45188 z"
       transform="matrix(1.455808,0,0,0.72790402,-13.246865,142.51534)"
       inkscape:export-xdpi="90"
       inkscape:export-ydpi="90"
       inkscape:export-filename="/home/robert-jan/Documents/Groovespark/groovespark-site/art/logo.png" />
    <path
       style="fill:none;stroke:#ffffff;stroke-width:9.78318501;stroke-linecap:round;stroke-linejoin:round;stroke-miterlimit:4;stroke-opacity:1;stroke-dasharray:none"
       d="M 557.96575,639.8662 C 536.01532,630.60666 517.7187,611.76722 504.08163,592.70496 488.42741,570.82808 472.40147,549.35331 454.85604,528.967 438.36619,509.81098 420.78322,491.43275 401.73396,474.85212 382.7251,458.28697 362.07971,442.53005 339.29475,431.58167 c -15.28401,-7.3653 -31.02592,-12.90397 -47.31828,-17.57486 -1.37838,-0.38709 -4.54265,-1.74424 -6.6445,-1.45486 -0.70568,0.0364 -1.31808,0.43546 -1.68129,0.99656 -0.90908,1.40005 -0.0732,4.02371 0,5.58472 0.39345,3.36547 0.80339,6.71941 1.22285,10.08112 4.86596,40.41217 6.73725,83.05609 -5.81021,122.29527 -6.74045,21.14942 -19.02516,40.5093 -35.39272,55.49035 -13.57167,12.40044 -32.95441,24.97327 -52.20194,24.07135 -1.77192,-0.0269 -3.57225,-0.28839 -5.35076,-0.61112"
       id="path22"
       inkscape:connector-curvature="0"
       sodipodi:nodetypes="ccccccsccccccc" />
  </g>
</svg>
